<?xml version="1.0" encoding="utf-8"?>
<!-- Generator: Adobe Illustrator 24.1.2, SVG Export Plug-In . SVG Version: 6.00 Build 0)  -->
<svg version="1.1" id="Layer_2_00000088819541363635491180000012235313228874421383_"
	 xmlns="http://www.w3.org/2000/svg" xmlns:xlink="http://www.w3.org/1999/xlink" x="0px" y="0px" viewBox="0 0 103.6 103.6"
	 style="enable-background:new 0 0 103.6 103.6;" xml:space="preserve">
<style type="text/css">
	.st0{fill:#050505;}
</style>
<g id="Layer_1-2">
	<path class="st0" d="M96.2,41.9C95.4,42,94.5,42,93.6,42c-9.3,0-18-4.7-23.2-12.5v42.6c0,17.4-14.1,31.5-31.5,31.5
		S7.5,89.5,7.5,72.2S21.6,40.7,39,40.7l0,0c0.7,0,1.3,0.1,1.9,0.1v15.5c-0.7-0.1-1.3-0.2-2-0.2c-8.9,0-16.1,7.2-16.1,16.1
		s7.3,16,16.2,16s16.7-7,16.7-15.9L55.8,0h14.8C72,13.3,82.7,23.7,96.1,24.7L96.2,41.9"/>
</g>
</svg>
