<?xml version="1.0" encoding="UTF-8"?><svg id="Layer_2" xmlns="http://www.w3.org/2000/svg" viewBox="0 0 104.66 104.66"><defs><style>.cls-1{fill:#fff;}</style></defs><g id="Layer_1-2"><path class="cls-1" d="M34.89,52.33c0-9.63,7.81-17.44,17.44-17.44s17.44,7.81,17.44,17.44-7.81,17.44-17.44,17.44-17.44-7.81-17.44-17.44m-9.43,0c0,14.84,12.03,26.87,26.87,26.87s26.87-12.03,26.87-26.87-12.03-26.87-26.87-26.87-26.87,12.03-26.87,26.87m48.53-27.94c0,3.47,2.81,6.28,6.28,6.28s6.28-2.82,6.28-6.28-2.81-6.28-6.28-6.28-6.28,2.81-6.28,6.28M31.19,94.93c-5.1-.23-7.87-1.08-9.72-1.8-2.44-.95-4.18-2.08-6.02-3.91-1.83-1.83-2.97-3.57-3.91-6.02-.72-1.84-1.57-4.62-1.8-9.72-.25-5.52-.3-7.17-.3-21.15s.05-15.63,.3-21.15c.23-5.1,1.09-7.87,1.8-9.72,.95-2.44,2.08-4.18,3.91-6.02,1.83-1.83,3.57-2.97,6.02-3.91,1.84-.72,4.62-1.57,9.72-1.8,5.52-.25,7.17-.3,21.14-.3s15.63,.05,21.15,.3c5.1,.23,7.87,1.09,9.72,1.8,2.44,.95,4.18,2.08,6.02,3.91,1.83,1.83,2.96,3.58,3.91,6.02,.72,1.84,1.57,4.62,1.8,9.72,.25,5.52,.3,7.17,.3,21.15s-.05,15.63-.3,21.15c-.23,5.1-1.09,7.87-1.8,9.72-.95,2.44-2.08,4.18-3.91,6.02s-3.58,2.96-6.02,3.91c-1.84,.72-4.62,1.57-9.72,1.8-5.52,.25-7.17,.3-21.15,.3s-15.63-.05-21.14-.3M30.76,.32c-5.57,.25-9.38,1.14-12.7,2.43-3.44,1.34-6.36,3.13-9.27,6.04-2.91,2.91-4.7,5.82-6.04,9.27-1.29,3.33-2.18,7.13-2.43,12.7-.26,5.58-.32,7.36-.32,21.57s.06,15.99,.32,21.57c.25,5.57,1.14,9.38,2.43,12.7,1.34,3.44,3.12,6.36,6.04,9.27,2.91,2.91,5.82,4.7,9.27,6.04,3.33,1.29,7.13,2.18,12.7,2.43,5.58,.25,7.36,.32,21.57,.32s15.99-.06,21.57-.32c5.57-.25,9.38-1.14,12.7-2.43,3.44-1.34,6.36-3.13,9.27-6.04,2.91-2.91,4.7-5.83,6.04-9.27,1.29-3.33,2.18-7.13,2.43-12.7,.25-5.58,.31-7.36,.31-21.57s-.06-15.99-.31-21.57c-.25-5.57-1.14-9.38-2.43-12.7-1.34-3.44-3.13-6.36-6.04-9.27-2.91-2.91-5.83-4.7-9.27-6.04-3.33-1.29-7.14-2.18-12.7-2.43-5.58-.25-7.36-.32-21.57-.32s-15.99,.06-21.58,.32"/></g></svg>
