<?xml version="1.0" encoding="utf-8"?>
<!-- Generator: Adobe Illustrator 26.3.1, SVG Export Plug-In . SVG Version: 6.00 Build 0)  -->
<svg version="1.1" id="Layer_2_00000165216364517903187570000016360712075323838899_"
	 xmlns="http://www.w3.org/2000/svg" xmlns:xlink="http://www.w3.org/1999/xlink" x="0px" y="0px" viewBox="0 0 150.2 150.2"
	 style="enable-background:new 0 0 150.2 150.2;" xml:space="preserve">
<style type="text/css">
	.st0{fill:#FFFFFF;}
</style>
<path class="st0" d="M78.6,0.1c-40.9,0-61.6,29.3-61.6,53.8c0,14.8,5.6,28,17.6,32.9c2,0.8,3.7,0,4.3-2.2c0.4-1.5,1.3-5.3,1.8-6.9
	c0.6-2.2,0.4-2.9-1.2-4.8c-3.5-4.1-5.7-9.4-5.7-16.9c0-21.8,16.3-41.3,42.4-41.3c23.1,0,35.8,14.1,35.8,33c0,24.8-11,45.8-27.3,45.8
	c-9,0-15.8-7.5-13.6-16.6c2.6-10.9,7.6-22.7,7.6-30.6c0-7.1-3.8-12.9-11.6-12.9c-9.2,0-16.6,9.5-16.6,22.3c0,8.1,2.7,13.6,2.7,13.6
	s-9.4,40-11.1,46.9c-3.3,13.9-0.5,31-0.3,32.7c0.1,1,1.5,1.3,2,0.5c0.8-1.1,11.8-14.7,15.6-28.2c1.1-3.8,6.1-23.7,6.1-23.7
	c3,5.7,11.7,10.7,21,10.7c27.7,0,46.5-25.2,46.5-59C133.2,23.9,111.5,0.1,78.6,0.1z"/>
</svg>
