<?xml version="1.0" encoding="utf-8"?>
<!-- Generator: Adobe Illustrator 26.3.1, SVG Export Plug-In . SVG Version: 6.00 Build 0)  -->
<svg version="1.1" id="Layer_2_00000165216364517903187570000016360712075323838899_"
	 xmlns="http://www.w3.org/2000/svg" xmlns:xlink="http://www.w3.org/1999/xlink" x="0px" y="0px" viewBox="0 0 150.2 150.2"
	 style="enable-background:new 0 0 150.2 150.2;" xml:space="preserve">
<style type="text/css">
	.st0{fill:#FFFFFF;}
</style>
<g id="Layer_1-2">
	<path class="st0" d="M78.4,126.9l-30.8-0.6c-10-0.2-20,0.2-29.8-1.8c-14.9-3-15.9-18-17-30.5c-1.5-17.6-0.9-35.5,1.9-52.9
		c1.6-9.8,8-15.6,17.9-16.2c33.3-2.3,66.8-2,100-1c3.5,0.1,7,0.6,10.5,1.2c17.1,3,17.5,19.9,18.6,34.1c1.1,14.4,0.6,28.8-1.5,43.1
		c-1.7,11.8-4.9,21.7-18.6,22.7c-17.1,1.2-33.8,2.3-51,1.9C78.6,126.9,78.5,126.9,78.4,126.9z M60.3,97c12.9-7.4,25.5-14.7,38.4-22
		c-12.9-7.4-25.6-14.7-38.4-22L60.3,97L60.3,97z"/>
</g>
</svg>
