<?xml version="1.0" encoding="utf-8"?>
<!-- Generator: Adobe Illustrator 24.1.2, SVG Export Plug-In . SVG Version: 6.00 Build 0)  -->
<svg version="1.1" id="Layer_2_00000107584347834560273110000015554399205108988546_"
	 xmlns="http://www.w3.org/2000/svg" xmlns:xlink="http://www.w3.org/1999/xlink" x="0px" y="0px" viewBox="0 0 128.7 128.7"
	 style="enable-background:new 0 0 128.7 128.7;" xml:space="preserve">
<style type="text/css">
	.st0{fill:#050505;}
</style>
<g id="Layer_1-2">
	<path class="st0" d="M40.5,116.7c48.6,0,75.2-40.3,75.2-75.2c0-1.1,0-2.3-0.1-3.4c5.2-3.7,9.6-8.4,13.2-13.7
		c-4.7,2.1-9.8,3.5-15.2,4.2c5.4-3.3,9.6-8.4,11.6-14.6c-5.2,3.1-10.9,5.3-16.8,6.4c-4.8-5.1-11.7-8.3-19.3-8.3
		c-14.6,0-26.4,11.8-26.4,26.4c0,2.1,0.2,4.1,0.7,6C41.5,43.4,22,32.9,9,16.9c-2.3,4-3.6,8.6-3.6,13.3c0,9.2,4.7,17.3,11.8,22
		c-4.2-0.1-8.3-1.3-12-3.3c0,0.1,0,0.2,0,0.3c0,12.8,9.1,23.5,21.2,25.9c-2.3,0.6-4.6,0.9-7,0.9c-1.7,0-3.4-0.2-5-0.5
		C17.8,86,27.6,93.7,39.1,93.9c-9,7.1-20.4,11.3-32.8,11.3c-2.1,0-4.2-0.1-6.3-0.4C11.7,112.3,25.6,116.7,40.5,116.7"/>
</g>
</svg>
