<?xml version="1.0" encoding="utf-8"?>
<!-- Generator: Adobe Illustrator 24.1.2, SVG Export Plug-In . SVG Version: 6.00 Build 0)  -->
<svg version="1.1" id="Layer_2_00000165216364517903187570000016360712075323838899_"
	 xmlns="http://www.w3.org/2000/svg" xmlns:xlink="http://www.w3.org/1999/xlink" x="0px" y="0px" viewBox="0 0 150.2 150.2"
	 style="enable-background:new 0 0 150.2 150.2;" xml:space="preserve">
<style type="text/css">
	.st0{fill-rule:evenodd;clip-rule:evenodd;fill:#050505;}
</style>
<path class="st0" d="M131.8,0.1c10.1,0,18.3,8.2,18.3,18.3v113.3c0,10.1-8.2,18.3-18.3,18.3H18.4c-10.1,0-18.3-8.2-18.3-18.3V18.4
	C0.1,8.3,8.3,0.1,18.4,0.1H131.8z M47.1,124.1V58h-22v66.1H47.1z M126.4,124.1V86.2c0-20.3-10.8-29.8-25.3-29.8
	c-11.7,0-16.9,6.4-19.8,10.9V58h-22c0.3,6.2,0,66.1,0,66.1h22V87.2c0-2,0.1-4,0.7-5.4c1.6-3.9,5.2-8,11.3-8c7.9,0,11.1,6.1,11.1,15
	v35.4C104.4,124.1,126.4,124.1,126.4,124.1z M36.3,26.1c-7.5,0-12.4,4.9-12.4,11.4C23.8,43.9,28.6,49,36,49h0.1
	c7.7,0,12.4-5.1,12.4-11.4C48.4,31.1,43.8,26.1,36.3,26.1z"/>
</svg>
