<?xml version="1.0" encoding="utf-8"?>
<!-- Generator: Adobe Illustrator 24.1.2, SVG Export Plug-In . SVG Version: 6.00 Build 0)  -->
<svg version="1.1" id="Layer_2_1_" xmlns="http://www.w3.org/2000/svg" xmlns:xlink="http://www.w3.org/1999/xlink" x="0px" y="0px"
	 viewBox="0 0 104.7 104.7" style="enable-background:new 0 0 104.7 104.7;" xml:space="preserve">
<style type="text/css">
	.st0{fill:#050505;}
</style>
<g id="Layer_1-2">
	<path class="st0" d="M34.9,52.3c0-9.6,7.8-17.4,17.4-17.4s17.4,7.8,17.4,17.4S62,69.8,52.3,69.8S34.9,62,34.9,52.3 M25.5,52.3
		c0,14.8,12,26.9,26.9,26.9s26.9-12,26.9-26.9s-12-26.9-26.9-26.9S25.5,37.5,25.5,52.3 M74,24.4c0,3.5,2.8,6.3,6.3,6.3
		s6.3-2.8,6.3-6.3s-2.8-6.3-6.3-6.3S74,20.9,74,24.4 M31.2,94.9c-5.1-0.2-7.9-1.1-9.7-1.8c-2.4-0.9-4.2-2.1-6-3.9
		c-1.8-1.8-3-3.6-3.9-6c-0.7-1.8-1.6-4.6-1.8-9.7C9.5,68,9.4,66.3,9.4,52.3s0.1-15.6,0.3-21.1c0.2-5.1,1.1-7.9,1.8-9.7
		c0.9-2.4,2.1-4.2,3.9-6c1.8-1.8,3.6-3,6-3.9c1.8-0.7,4.6-1.6,9.7-1.8c5.5-0.3,7.2-0.3,21.1-0.3S68,9.5,73.5,9.7
		c5.1,0.2,7.9,1.1,9.7,1.8c2.4,0.9,4.2,2.1,6,3.9c1.8,1.8,3,3.6,3.9,6c0.7,1.8,1.6,4.6,1.8,9.7c0.3,5.5,0.3,7.2,0.3,21.1
		S95.2,68,94.9,73.5c-0.2,5.1-1.1,7.9-1.8,9.7c-0.9,2.4-2.1,4.2-3.9,6s-3.6,3-6,3.9c-1.8,0.7-4.6,1.6-9.7,1.8
		c-5.5,0.3-7.2,0.3-21.2,0.3S36.7,95.2,31.2,94.9 M30.8,0.3c-5.6,0.3-9.4,1.1-12.7,2.4c-3.4,1.3-6.4,3.1-9.3,6s-4.7,5.8-6,9.3
		c-1.3,3.3-2.2,7.1-2.4,12.7C0.1,36.3,0,38.1,0,52.3s0.1,16,0.3,21.6c0.3,5.6,1.1,9.4,2.4,12.7c1.3,3.4,3.1,6.4,6,9.3
		c2.9,2.9,5.8,4.7,9.3,6c3.3,1.3,7.1,2.2,12.7,2.4c5.6,0.3,7.4,0.3,21.6,0.3s16-0.1,21.6-0.3c5.6-0.3,9.4-1.1,12.7-2.4
		c3.4-1.3,6.4-3.1,9.3-6c2.9-2.9,4.7-5.8,6-9.3c1.3-3.3,2.2-7.1,2.4-12.7c0.3-5.6,0.3-7.4,0.3-21.6s-0.1-16-0.3-21.6
		c-0.3-5.6-1.1-9.4-2.4-12.7c-1.3-3.4-3.1-6.4-6-9.3s-5.8-4.7-9.3-6c-3.3-1.3-7.1-2.2-12.7-2.4C68.3,0.1,66.5,0,52.3,0
		S36.3,0.1,30.8,0.3"/>
</g>
</svg>
