<?xml version="1.0" encoding="utf-8"?>
<!-- Generator: Adobe Illustrator 24.1.2, SVG Export Plug-In . SVG Version: 6.00 Build 0)  -->
<svg version="1.1" id="Layer_2_00000165216364517903187570000016360712075323838899_"
	 xmlns="http://www.w3.org/2000/svg" xmlns:xlink="http://www.w3.org/1999/xlink" x="0px" y="0px" viewBox="0 0 150.2 150.2"
	 style="enable-background:new 0 0 150.2 150.2;" xml:space="preserve">
<style type="text/css">
	.st0{fill:#050505;}
</style>
<path class="st0" d="M76.1,150.1c-0.4,0-0.8,0-1.2,0l0,0c-0.3,0-0.5,0-0.8,0c-9.5,0-15.5-4.3-21.4-8.4c-4.1-2.9-7.9-5.6-12.4-6.3
	c-2.2-0.4-4.4-0.5-6.5-0.5c-3.8,0-6.8,0.6-9,1c-1.3,0.3-2.5,0.5-3.4,0.5s-1.9-0.2-2.3-1.7c-0.4-1.3-0.6-2.5-0.9-3.7
	c-0.7-3.1-1.1-5-2.4-5.2c-15-2.3-19.3-5.5-20.3-7.7c-0.1-0.3-0.2-0.6-0.2-1c0-0.9,0.6-1.6,1.4-1.8c23.1-3.8,33.4-27.4,33.9-28.4
	v-0.1c1.4-2.9,1.7-5.3,0.8-7.4c-1.6-3.7-6.8-5.4-10.2-6.5c-0.8-0.3-1.6-0.5-2.3-0.8c-6.8-2.7-7.4-5.5-7.1-6.9
	c0.5-2.4,3.7-4.1,6.3-4.1c0.7,0,1.3,0.1,1.9,0.4c3.1,1.4,5.8,2.2,8.2,2.2c3.3,0,4.7-1.4,4.9-1.6c-0.1-1.6-0.2-3.2-0.3-4.9
	c-0.7-10.9-1.5-24.5,1.9-32.2C45,1.9,67,0.1,73.5,0.1c0.2,0,2.8,0,2.8,0h0.4c6.5,0,28.5,1.8,38.8,25c3.5,7.7,2.6,21.3,1.9,32.2v0.5
	c-0.1,1.5-0.2,3-0.3,4.4c0.2,0.2,1.5,1.4,4.5,1.6l0,0c2.3-0.1,4.9-0.8,7.8-2.2c0.8-0.4,1.8-0.5,2.4-0.5c1,0,2,0.2,2.8,0.5l0,0
	c2.3,0.8,3.8,2.4,3.9,4.1c0,1.6-1.2,4-7.2,6.4c-0.6,0.2-1.4,0.5-2.3,0.8c-3.4,1.1-8.6,2.7-10.2,6.5c-0.9,2-0.6,4.5,0.8,7.4v0.1
	c0.4,1,10.8,24.6,33.9,28.4c0.9,0.1,1.5,0.9,1.4,1.8c0,0.3-0.1,0.6-0.2,1c-1,2.2-5.2,5.4-20.3,7.7c-1.2,0.2-1.7,1.8-2.4,5.1
	c-0.3,1.2-0.5,2.4-0.9,3.7c-0.3,1.1-1,1.6-2.1,1.6h-0.2c-0.8,0-1.9-0.1-3.4-0.4c-2.5-0.5-5.4-1-9-1c-2.1,0-4.3,0.2-6.5,0.5
	c-4.5,0.8-8.3,3.5-12.4,6.3C91.7,145.8,85.6,150.1,76.1,150.1z"/>
</svg>
