<?xml version="1.0" standalone="no"?>
<!DOCTYPE svg PUBLIC "-//W3C//DTD SVG 20010904//EN"
 "http://www.w3.org/TR/2001/REC-SVG-20010904/DTD/svg10.dtd">
<svg version="1.0" xmlns="http://www.w3.org/2000/svg"
 width="512.000000pt" height="512.000000pt" viewBox="0 0 512.000000 512.000000"
 preserveAspectRatio="xMidYMid meet">
<metadata>
Created by potrace 1.14, written by Peter Selinger 2001-2017
</metadata>
<g transform="translate(0.000000,512.000000) scale(0.100000,-0.100000)"
fill="#000000" stroke="none">
<path d="M410 2565 l0 -1016 433 3 432 3 60 30 c65 32 97 70 118 139 8 29 12
138 12 381 0 323 -1 342 -21 380 -14 28 -34 47 -68 64 l-47 24 29 17 c87 53
95 95 90 500 -3 359 -3 356 -71 428 -57 59 -83 62 -549 62 l-418 0 0 -1015z
m648 406 c3 -300 12 -281 -135 -281 l-103 0 0 265 0 266 118 -3 117 -3 3 -244z
m-9 -605 c8 -9 11 -79 9 -232 l-3 -219 -117 -3 -118 -3 0 236 0 235 109 0 c80
0 112 -4 120 -14z"/>
<path d="M1746 2588 c-99 -546 -182 -1003 -184 -1015 l-4 -23 204 0 205 0 7
48 c3 26 11 82 17 125 l11 77 139 0 138 0 6 -32 c3 -18 11 -73 18 -123 l12
-90 203 -3 c179 -2 202 -1 202 14 0 12 -335 1884 -356 1987 l-6 27 -216 0
-217 0 -179 -992z m444 -106 c22 -172 40 -323 40 -337 0 -25 -1 -25 -90 -25
-56 0 -90 4 -90 10 0 15 78 607 87 655 8 50 5 68 53 -303z"/>
<path d="M2922 3561 c-65 -23 -116 -70 -139 -130 -16 -41 -18 -89 -18 -466 l0
-420 25 -50 c41 -82 62 -89 277 -93 174 -3 184 -5 198 -25 20 -28 22 -416 3
-435 -9 -9 -77 -12 -246 -12 -183 0 -233 -3 -229 -12 2 -7 19 -93 38 -191 l33
-178 316 3 c348 4 361 6 427 70 65 63 68 84 68 558 0 571 16 542 -296 550
-137 4 -190 9 -202 19 -15 12 -17 40 -17 220 0 148 3 210 12 219 9 9 79 12
255 12 l243 0 -5 23 c-7 28 -65 344 -65 351 0 3 -141 6 -312 6 -277 -1 -319
-3 -366 -19z"/>
<path d="M3840 2565 l0 -1015 389 0 389 0 17 98 c10 53 25 138 35 187 l17 90
-214 3 -213 2 0 220 0 220 170 0 170 0 0 175 0 175 -170 0 -170 0 0 240 0 240
220 0 c203 0 220 1 219 18 0 9 -15 94 -32 187 l-33 170 -397 3 -397 2 0 -1015z"/>
</g>
</svg>
