<?xml version="1.0" standalone="no"?>
<!DOCTYPE svg PUBLIC "-//W3C//DTD SVG 20010904//EN"
 "http://www.w3.org/TR/2001/REC-SVG-20010904/DTD/svg10.dtd">
<svg version="1.0" xmlns="http://www.w3.org/2000/svg"
 width="512.000000pt" height="512.000000pt" viewBox="0 0 512.000000 512.000000"
 preserveAspectRatio="xMidYMid meet">
<metadata>
Created by potrace 1.14, written by Peter Selinger 2001-2017
</metadata>
<g transform="translate(0.000000,512.000000) scale(0.100000,-0.100000)"
fill="#000000" stroke="none">
<path d="M2883 3173 c-3 -10 -7 -20 -9 -23 -1 -3 39 -4 90 -2 l92 3 -1 -588 0
-588 -87 0 c-49 0 -88 -3 -88 -7 0 -5 0 -12 0 -16 0 -4 120 -8 266 -7 226 0
267 2 274 15 7 13 -4 15 -78 14 -87 -1 -127 10 -100 27 7 5 9 9 3 9 -8 0 -13
162 -5 180 1 3 1 10 0 15 -6 31 -5 137 2 141 5 3 6 10 2 15 -9 15 -11 140 -2
145 4 3 3 16 -2 29 -6 15 -6 27 1 30 5 4 6 11 2 17 -10 17 -11 78 -1 84 5 3 6
10 2 15 -9 15 -11 140 -2 145 5 3 6 10 2 15 -9 15 -11 140 -2 145 5 3 6 10 3
15 -9 14 -13 127 -5 139 4 7 13 11 21 10 8 -1 47 -2 87 -1 52 1 72 5 72 14 0
11 -50 13 -247 12 -137 -1 -256 3 -266 7 -13 7 -19 4 -24 -9z"/>
<path d="M400 3161 c0 -14 14 -16 93 -16 l92 0 3 -550 c2 -302 1 -559 -3 -572
-6 -27 -70 -47 -167 -52 -10 -1 -15 -7 -12 -14 7 -18 561 -18 561 1 0 6 -12
12 -26 13 -62 1 -127 11 -151 22 l-25 12 -2 268 c-3 231 -1 267 12 267 8 0 15
-6 15 -12 0 -9 3 -10 8 -2 4 6 16 10 27 8 32 -6 253 -6 262 -1 5 3 28 8 53 12
97 14 208 113 242 215 20 59 15 167 -10 222 -35 79 -121 146 -212 164 -16 4
-28 9 -26 13 6 10 -37 11 -396 15 -306 3 -338 2 -338 -13z m641 -25 c50 -8
110 -34 132 -57 37 -40 64 -154 61 -266 -3 -131 -55 -216 -146 -240 -29 -8
-217 -11 -280 -5 l-47 4 0 290 -1 290 123 -5 c67 -3 138 -8 158 -11z"/>
<path d="M1505 3171 c-16 -16 6 -21 90 -21 l95 0 0 -589 0 -588 -67 1 c-38 1
-74 5 -82 10 -10 6 -12 5 -7 -2 5 -8 0 -12 -13 -12 -19 0 -31 -18 -13 -21 30
-6 525 -3 535 3 24 15 -7 23 -91 23 l-87 0 -3 323 -2 322 252 0 253 0 0 -25
c0 -14 -4 -25 -8 -25 -5 0 -5 -5 -1 -12 10 -16 11 -258 2 -264 -4 -3 -3 -15 2
-28 9 -26 9 -44 -3 -63 -5 -7 -5 -13 0 -13 10 0 10 -90 0 -106 -3 -6 -4 -14 0
-18 11 -10 9 -86 -2 -87 -5 -1 -48 -2 -95 -3 -68 -1 -85 -4 -85 -16 0 -13 38
-15 278 -15 206 -1 277 2 277 11 0 16 -18 22 -58 18 -21 -2 -30 1 -26 8 5 7 2
8 -7 2 -8 -5 -35 -9 -62 -10 l-47 -1 2 586 3 586 98 0 c95 0 109 4 85 22 -15
10 -534 11 -544 0 -12 -12 -1 -15 56 -19 30 -2 61 -8 69 -12 9 -6 12 -5 8 1
-4 7 5 10 23 9 17 0 31 -3 31 -6 6 -27 3 -128 -4 -137 -5 -7 -6 -13 -1 -13 10
0 11 -206 2 -216 -4 -3 -4 -16 0 -28 4 -11 7 -37 7 -56 l0 -35 -254 0 -254 0
0 55 c1 30 1 142 2 248 l1 192 93 0 c69 0 94 3 94 13 0 10 -58 13 -269 13
-148 0 -271 -2 -273 -5z"/>
<path d="M3591 3172 c-6 -2 -11 -8 -11 -13 0 -5 35 -9 78 -9 l78 0 33 -62 c18
-35 53 -96 76 -137 24 -41 41 -79 38 -84 -3 -6 -2 -7 4 -4 5 3 25 -23 44 -59
47 -90 61 -113 87 -156 13 -21 20 -43 16 -49 -4 -7 -3 -9 3 -6 6 4 15 -4 21
-17 8 -18 7 -30 -4 -51 -29 -57 -59 -110 -64 -115 -3 -3 -11 -16 -17 -30 -7
-14 -27 -52 -46 -85 -19 -33 -46 -82 -62 -110 -44 -81 -68 -118 -85 -135 -42
-42 -114 -71 -178 -72 -26 0 -39 -5 -39 -14 0 -11 23 -14 106 -15 58 -1 159
-2 224 -3 84 -1 122 3 129 12 8 9 6 12 -8 13 -81 5 -144 18 -144 30 0 6 -4 8
-9 5 -4 -3 -13 6 -20 20 -12 26 -5 46 47 136 12 21 37 66 55 100 19 35 49 90
67 123 18 33 39 72 47 87 21 41 31 42 50 5 28 -53 89 -166 126 -232 77 -139
96 -172 121 -215 14 -25 26 -47 26 -50 0 -5 -90 -5 -100 0 -3 1 -9 1 -15 0 -5
-2 -28 -4 -50 -4 -28 -1 -40 -6 -40 -16 0 -13 39 -15 273 -15 233 0 272 2 270
14 -2 11 -20 15 -73 15 l-70 1 -27 45 c-15 25 -26 51 -23 58 3 7 1 11 -3 8
-12 -7 -94 143 -86 156 4 6 3 8 -3 5 -6 -4 -28 26 -52 71 -23 42 -53 97 -67
122 -41 73 -62 114 -62 124 0 5 -5 12 -10 15 -5 3 -19 25 -31 48 l-21 42 51
91 c29 49 56 90 61 90 5 0 6 5 3 10 -4 6 -1 18 6 26 15 19 99 165 99 174 0 3
12 18 28 33 33 32 96 55 158 58 25 2 47 6 50 11 7 11 15 11 -223 13 -174 2
-210 0 -206 -11 3 -9 23 -15 52 -16 76 -2 106 -11 116 -35 7 -21 -69 -169 -85
-165 -6 1 -9 -2 -5 -7 5 -10 -70 -160 -86 -171 -4 -3 -12 -18 -18 -33 -6 -15
-14 -27 -19 -27 -4 0 -20 24 -36 53 -15 28 -71 126 -125 217 -54 91 -97 167
-95 169 2 2 44 3 94 2 71 -1 91 1 88 11 -4 10 -60 13 -250 13 -135 1 -251 -1
-257 -3z"/>
</g>
</svg>
